<svg width="25" height="25" viewBox="0 0 25 25" fill="none" xmlns="http://www.w3.org/2000/svg">
<path d="M11.8 9.5H13.8V7.5H11.8V9.5ZM12.8 20.5C8.39005 20.5 4.80005 16.91 4.80005 12.5C4.80005 8.09 8.39005 4.5 12.8 4.5C17.21 4.5 20.8 8.09 20.8 12.5C20.8 16.91 17.21 20.5 12.8 20.5ZM12.8 2.5C11.4868 2.5 10.1865 2.75866 8.97321 3.2612C7.75996 3.76375 6.65757 4.50035 5.72898 5.42893C3.85362 7.3043 2.80005 9.84784 2.80005 12.5C2.80005 15.1522 3.85362 17.6957 5.72898 19.5711C6.65757 20.4997 7.75996 21.2362 8.97321 21.7388C10.1865 22.2413 11.4868 22.5 12.8 22.5C15.4522 22.5 17.9958 21.4464 19.8711 19.5711C21.7465 17.6957 22.8 15.1522 22.8 12.5C22.8 11.1868 22.5414 9.88642 22.0388 8.67317C21.5363 7.45991 20.7997 6.35752 19.8711 5.42893C18.9425 4.50035 17.8401 3.76375 16.6269 3.2612C15.4136 2.75866 14.1133 2.5 12.8 2.5ZM11.8 17.5H13.8V11.5H11.8V17.5Z" fill="white"/>
</svg>
