<svg width="155" height="52" viewBox="0 0 155 52" fill="none" xmlns="http://www.w3.org/2000/svg">
<g clip-path="url(#clip0_1_639)">
<mask id="mask0_1_639" style="mask-type:luminance" maskUnits="userSpaceOnUse" x="0" y="0" width="155" height="52">
<path d="M155 0.979858H0V51.6362H155V0.979858Z" fill="white"/>
</mask>
<g mask="url(#mask0_1_639)">
<path d="M95.8027 1.63452C100.25 1.63452 103.848 2.7022 106.11 3.66857L104.551 13.9869L103.508 13.4803C101.431 12.5139 98.6827 11.5476 94.9457 11.6489C90.4057 11.6489 88.3751 13.7297 88.3288 15.7637C88.3288 18.0004 90.7918 19.4733 94.8067 21.6633C101.431 25.0689 104.497 29.2383 104.45 34.6702C104.358 44.5833 96.5054 50.9816 84.4451 50.9816C79.2874 50.927 74.3228 49.758 71.6281 48.441L73.2341 37.7174L74.7474 38.4812C78.4844 40.258 80.9397 41.0218 85.5337 41.0218C88.8461 41.0218 92.39 39.5488 92.4364 36.3458C92.4364 34.265 90.923 32.7375 86.4757 30.3995C82.1288 28.1083 76.3071 24.2974 76.3998 17.4393C76.4461 8.14191 84.4374 1.63452 95.7873 1.63452H95.8027Z" fill="#8A8A8A"/>
<path d="M52.9587 50.2724H64.4476L71.6436 2.49963H60.1547L52.9664 50.2724H52.9587Z" fill="#8A8A8A"/>
<path fill-rule="evenodd" clip-rule="evenodd" d="M135.574 2.49963H126.687C123.946 2.49963 121.861 3.36469 120.68 6.46641L103.609 50.2724H115.669C115.669 50.2724 117.653 44.3729 118.078 43.1026H132.833C133.165 44.7782 134.207 50.2724 134.207 50.2724H144.847L135.574 2.49963ZM121.39 33.3454C122.34 30.6022 125.977 19.98 125.977 19.98C125.961 20.0189 126.108 19.5747 126.332 18.9045C126.664 17.9225 127.15 16.4652 127.49 15.4053L128.293 19.5202C128.293 19.5202 130.47 30.9529 130.941 33.3454H121.39Z" fill="#8A8A8A"/>
<path d="M32.1041 35.0755L43.3614 2.49963H55.5143L37.4471 50.2179H25.2941L14.9866 8.44591C22.2675 12.5608 28.7918 20.845 30.8765 28.4668L32.1041 35.0755Z" fill="#8A8A8A"/>
<path d="M21.6575 2.49963H3.16563L2.98032 3.466C17.4032 7.43278 26.9542 16.9873 30.8842 28.4746L26.8615 6.52097C26.1975 3.466 24.1669 2.60874 21.6575 2.50743V2.49963Z" fill="white"/>
</g>
</g>
<defs>
<clipPath id="clip0_1_639">
<rect width="155" height="50.6563" fill="white" transform="translate(0 0.979858)"/>
</clipPath>
</defs>
</svg>
