<svg width="51" height="52" viewBox="0 0 51 52" fill="none" xmlns="http://www.w3.org/2000/svg">
<g clip-path="url(#clip0_1_667)">
<mask id="mask0_1_667" style="mask-type:luminance" maskUnits="userSpaceOnUse" x="0" y="0" width="51" height="52">
<path d="M51 0.946167H0V51.6025H51V0.946167Z" fill="white"/>
</mask>
<g mask="url(#mask0_1_667)">
<mask id="mask1_1_667" style="mask-type:luminance" maskUnits="userSpaceOnUse" x="1" y="1" width="49" height="50">
<path d="M49.9512 1.80347H1.86792V50.7531H49.9512V1.80347Z" fill="white"/>
</mask>
<g mask="url(#mask1_1_667)">
<path d="M49.224 32.1974C46.0165 45.3057 32.9717 53.286 20.0878 50.0206C7.21144 46.7475 -0.627645 33.4677 2.58761 20.3594C5.7952 7.24332 18.8399 -0.737 31.7162 2.53618C44.5926 5.80156 52.4316 19.0891 49.224 32.1974Z" fill="#747474"/>
<path d="M36.5008 22.7908C36.983 19.5332 34.541 17.7875 31.2109 16.6185L32.2903 12.2075L29.6492 11.5373L28.6004 15.8314C27.9038 15.6522 27.1918 15.4885 26.4876 15.3248L27.544 10.9996L24.9106 10.3293L23.8311 14.7403C23.257 14.6079 22.6905 14.4754 22.147 14.3351V14.3195L18.5107 13.3921L17.8064 16.26C17.8064 16.26 19.7661 16.7198 19.7202 16.7432C20.792 17.016 20.9834 17.733 20.9527 18.3019L19.7202 23.3285C19.7968 23.3441 19.8886 23.3753 19.9958 23.4143C19.9116 23.3909 19.8121 23.3675 19.7202 23.3441L17.9978 30.3815C17.8676 30.7088 17.5384 31.2076 16.7882 31.0205C16.8112 31.0595 14.8744 30.5295 14.8744 30.5295L13.5653 33.6001L16.9949 34.4729C17.6303 34.6366 18.258 34.808 18.8781 34.9639L17.7834 39.4295L20.4169 40.0997L21.4963 35.6887C22.2159 35.8913 22.9125 36.0706 23.6015 36.242L22.5221 40.6374L25.1632 41.3076L26.2579 36.8577C30.7592 37.7227 34.1353 37.372 35.5592 33.2338C36.7075 29.8983 35.5056 27.9733 33.1324 26.7186C34.8549 26.3134 36.1563 25.16 36.5008 22.7752V22.7908ZM30.476 31.3946C29.6645 34.7301 24.145 32.9299 22.3613 32.4779L23.8082 26.5705C25.5995 27.0226 31.3334 27.9266 30.476 31.4024V31.3946ZM31.2951 22.744C30.5525 25.7756 25.9593 24.2326 24.4742 23.8585L25.7909 18.4967C27.2761 18.8708 32.076 19.58 31.3028 22.744H31.2951Z" fill="white"/>
</g>
</g>
</g>
<defs>
<clipPath id="clip0_1_667">
<rect width="51" height="50.6563" fill="white" transform="translate(0 0.946167)"/>
</clipPath>
</defs>
</svg>
