<svg width="148" height="51" viewBox="0 0 148 51" fill="none" xmlns="http://www.w3.org/2000/svg">
<g clip-path="url(#clip0_1_661)">
<mask id="mask0_1_661" style="mask-type:luminance" maskUnits="userSpaceOnUse" x="0" y="0" width="148" height="51">
<path d="M148 0.0135498H0V50.6699H148V0.0135498Z" fill="white"/>
</mask>
<g mask="url(#mask0_1_661)">
<path d="M115.377 4.79083L126.905 2.67885V48.2072H115.377V4.79083ZM132.203 4.79083V48.1838H143.731V2.67885L132.203 4.79083ZM98.9972 48.1838H110.525V14.8909H98.9972V48.1838ZM22.8286 19.5981C21.3602 19.4968 17.9919 19.2708 17.9919 16.1534C17.9919 12.3815 22.8513 12.3815 24.6604 12.3815C27.8621 12.3815 32.01 13.3634 34.962 14.2675C34.962 14.2675 36.6197 14.8675 38.0124 15.4754L38.1335 15.4988V5.18829L37.9594 5.14153C34.47 3.88681 30.4129 2.67885 22.8665 2.67885C9.88535 2.67885 5.29843 10.4721 5.29843 17.1354C5.29843 20.9853 6.91066 30.0333 21.7841 31.0854C23.0557 31.1633 26.4013 31.3581 26.4013 34.6079C26.4013 37.2732 23.6688 38.8553 19.0516 38.8553C13.9954 38.8553 9.11329 37.5226 6.13104 36.2679V46.9057C10.5741 48.1137 15.6076 48.7138 21.4889 48.7138C34.19 48.7138 39.8744 41.3491 39.8744 34.0312C39.8744 25.7314 33.5239 20.354 22.8286 19.5981ZM92.4953 14.4155C81.8455 14.7662 76.4486 19.6916 76.4486 29.4722V48.1994H88.0749V32.9168C88.0749 27.0562 88.8091 24.5468 95.5684 24.3208V14.5636C94.3951 14.3376 92.4953 14.4155 92.4953 14.4155ZM61.2422 14.8675C61 15.5222 59.1455 20.8995 54.6721 26.4562V2.67885L42.781 5.09477V48.1838H54.6721V34.8573C58.1161 40.1879 59.8267 48.1838 59.8267 48.1838H74.0644C72.6489 42.1518 66.4952 31.0386 66.4952 31.0386C72.0131 23.822 74.4579 16.1301 74.844 14.8442H61.2422V14.8675ZM104.735 11.7035C107.861 11.7035 110.427 9.08493 110.427 5.8741C110.427 2.66327 107.883 0.0135498 104.735 0.0135498C101.586 0.0135498 99.0729 2.63209 99.0729 5.8741C99.0729 9.1161 101.616 11.7035 104.735 11.7035Z" fill="url(#paint0_linear_1_661)"/>
</g>
</g>
<defs>
<linearGradient id="paint0_linear_1_661" x1="7.26869" y1="24.6076" x2="144.58" y2="24.6076" gradientUnits="userSpaceOnUse">
<stop stop-color="#808080"/>
<stop offset="1" stop-color="#797979"/>
</linearGradient>
<clipPath id="clip0_1_661">
<rect width="148" height="50.6563" fill="white" transform="translate(0 0.0135498)"/>
</clipPath>
</defs>
</svg>
