<svg width="271" height="52" viewBox="0 0 271 52" fill="none" xmlns="http://www.w3.org/2000/svg">
<g clip-path="url(#clip0_1_632)">
<mask id="mask0_1_632" style="mask-type:luminance" maskUnits="userSpaceOnUse" x="0" y="0" width="271" height="52">
<path d="M271 0.979858H0V51.6362H271V0.979858Z" fill="white"/>
</mask>
<g mask="url(#mask0_1_632)">
<path d="M264.163 5.49998C260.77 3.05289 255.603 1.82935 248.811 1.82935H231.097L224.456 39.6112H201.274L202.748 31.0463H216.776L218.401 21.4061H204.373L205.847 12.8412H220.319L222.237 1.82935H193L186.651 37.7797H175.873L182.372 1.82935H167.02L160.822 37.6239H150.337L156.677 1.82935H141.468L134.827 39.6112H111.502L112.976 31.0463H127.004L128.629 21.4061H114.601L116.075 12.8412H130.69L132.608 1.82935H41.3695L36.202 31.8101L25.8672 1.82935H10.0641L1.50435 50.7867H16.7133L21.8807 20.0422L31.9222 50.7867H86.2515L92.8932 13.0049H101.453L94.6608 50.7867H237.431L241.568 26.9237L248.209 50.7867H263.418L256.476 31.2022L258.1 30.8983C261.35 30.2826 264.155 28.4512 266.224 25.8482C268.142 22.9413 269.18 19.5746 269.029 15.904C269.029 11.3138 267.555 7.94707 264.155 5.49998H264.163ZM72.9607 39.6189H49.7787L51.253 31.0541H65.8677L67.4924 21.4139H53.0206L54.3519 12.9971H77.5339L72.9531 39.6112L72.9607 39.6189ZM251.759 23.2531C250.285 24.3207 248.066 24.9364 244.967 24.9364H242.011L244.373 11.7814H246.584C249.097 11.7814 250.864 12.2412 252.196 13.0049C252.933 13.4647 253.527 14.2284 253.82 14.9922C254.264 15.7559 254.415 16.6755 254.264 17.5951C254.264 18.6628 254.114 19.7383 253.67 20.6579C253.226 21.7256 252.639 22.4971 251.752 23.2609L251.759 23.2531Z" fill="#8A8A8A"/>
</g>
</g>
<defs>
<clipPath id="clip0_1_632">
<rect width="271" height="50.6563" fill="white" transform="translate(0 0.979858)"/>
</clipPath>
</defs>
</svg>
