<svg width="46" height="52" viewBox="0 0 46 52" fill="none" xmlns="http://www.w3.org/2000/svg">
<g clip-path="url(#clip0_1_680)">
<mask id="mask0_1_680" style="mask-type:luminance" maskUnits="userSpaceOnUse" x="0" y="0" width="46" height="52">
<path d="M46 0.979858H0V51.6362H46V0.979858Z" fill="white"/>
</mask>
<g mask="url(#mask0_1_680)">
<mask id="mask1_1_680" style="mask-type:luminance" maskUnits="userSpaceOnUse" x="1" y="3" width="44" height="47">
<path d="M44.7555 3.55945H1.24445V49.0566H44.7555V3.55945Z" fill="white"/>
</mask>
<g mask="url(#mask1_1_680)">
<path d="M22.9962 46.5939C33.7137 46.5939 42.3948 37.5147 42.3948 26.308C42.3948 15.1013 33.7137 6.02209 22.9962 6.02209C12.2788 6.02209 3.59766 15.1091 3.59766 26.308C3.59766 37.507 12.2863 46.5939 22.9962 46.5939Z" fill="white"/>
<path d="M22.9962 3.55967C18.6972 3.55967 14.4886 4.89232 10.9136 7.39397C7.33859 9.89561 4.54797 13.4494 2.90376 17.6032C1.25956 21.757 0.829654 26.3316 1.66684 30.7426C2.50403 35.1536 4.57814 39.2062 7.61765 42.3858C10.6572 45.5655 14.5339 47.732 18.7575 48.6127C22.9812 49.4933 27.3481 49.0413 31.3304 47.319C35.3051 45.5966 38.7067 42.682 41.09 38.9412C43.4809 35.2004 44.7555 30.805 44.7555 26.3005C44.7631 23.3234 44.2125 20.3698 43.1264 17.6188C42.0403 14.8599 40.4565 12.3583 38.4427 10.2463C36.4365 8.13433 34.0456 6.45878 31.4209 5.30537C28.7887 4.15976 25.9754 3.55967 23.1245 3.55188H22.9962V3.55967ZM23.3658 27.0798L21.1031 35.0679H33.2159C33.2989 35.0679 33.3743 35.0757 33.4498 35.1069C33.5252 35.1381 33.5931 35.1848 33.6534 35.2394C33.7137 35.2939 33.759 35.3641 33.7892 35.442C33.8193 35.5199 33.8419 35.5979 33.8419 35.6836V35.894L32.786 39.6971C32.7408 39.8764 32.6352 40.0322 32.4919 40.1414C32.3486 40.2505 32.1751 40.305 31.9941 40.2972H13.4629L16.5703 29.223L13.0933 30.3218L13.8852 27.789L17.3622 26.6901L21.7367 11.1581C21.7819 10.9789 21.8875 10.823 22.0308 10.7139C22.1741 10.6048 22.3476 10.5502 22.5286 10.5502H27.2199C27.3028 10.5502 27.3783 10.558 27.4537 10.5892C27.5291 10.6204 27.597 10.6671 27.6573 10.7217C27.7177 10.7763 27.7629 10.8464 27.7931 10.9243C27.8233 11.0023 27.8459 11.0802 27.8459 11.1659V11.3763L24.1577 24.4846L27.6347 23.3858L26.8956 26.0277L23.3658 27.072V27.0798Z" fill="#737373"/>
</g>
</g>
</g>
<defs>
<clipPath id="clip0_1_680">
<rect width="46" height="50.6563" fill="white" transform="translate(0 0.979858)"/>
</clipPath>
</defs>
</svg>
