<svg width="87" height="52" viewBox="0 0 87 52" fill="none" xmlns="http://www.w3.org/2000/svg">
<g clip-path="url(#clip0_1_651)">
<mask id="mask0_1_651" style="mask-type:luminance" maskUnits="userSpaceOnUse" x="0" y="0" width="87" height="52">
<path d="M87 0.979858H0V51.6362H87V0.979858Z" fill="white"/>
</mask>
<g mask="url(#mask0_1_651)">
<path d="M42.282 45.1912C37.9623 48.8852 32.3564 51.1219 26.2362 51.1219C12.5734 51.1219 1.49791 40.0086 1.49791 26.3081C1.49791 12.6075 12.5734 1.49426 26.2362 1.49426C32.3564 1.49426 37.9623 3.72314 42.282 7.42495C46.6017 3.73093 52.2076 1.49426 58.3278 1.49426C71.9906 1.49426 83.0661 12.5997 83.0661 26.3081C83.0661 40.0164 71.9906 51.1219 58.3278 51.1219C52.2076 51.1219 46.6017 48.893 42.282 45.1912Z" fill="#757575"/>
<path d="M42.282 45.1912C47.6003 40.6399 50.9744 33.8675 50.9744 26.3081C50.9744 18.7486 47.6003 11.9762 42.282 7.42495C46.6017 3.73093 52.2076 1.49426 58.3278 1.49426C71.9906 1.49426 83.0661 12.5997 83.0661 26.3081C83.0661 40.0164 71.9906 51.1219 58.3278 51.1219C52.2076 51.1219 46.6017 48.893 42.282 45.1912Z" fill="#A4A4A4"/>
<path d="M42.282 45.1912C47.6003 40.6399 50.9744 33.8675 50.9744 26.3081C50.9744 18.7486 47.6003 11.9762 42.282 7.42493C36.9636 11.9762 33.5896 18.7486 33.5896 26.3081C33.5896 33.8675 36.9636 40.6399 42.282 45.1912Z" fill="#8A8A8A"/>
</g>
</g>
<defs>
<clipPath id="clip0_1_651">
<rect width="87" height="50.6563" fill="white" transform="translate(0 0.979858)"/>
</clipPath>
</defs>
</svg>
